PathFileType	4	(X/Y/Z)	s04c0201.trc
DataRate	CameraRate	NumFrames	NumMarkers	Units	OrigDataRate	OrigDataStartFrame	OrigNumFrames
200	200	5	51	mm	200	0	2000
Frame#	Time	racr			lacr			c7			jug			rlel			rdr			llel			ldr			s2			lic			ric			lasi			rasi			rpsi			lpsi			rgt			lgt			rth1			rth2			rth3			rth4			rlfc			rmfc			rsh1			rsh2			rsh3			rsh4			rlmal			rmmal			rcal			rtoe			rmt5			lth1			lth2			lth4			lth3			llfc			lmfc			lsh1			lsh2			lsh3			lsh4			llmal			lmmal			lcal			ltoe			lmt1			lmt5			SBIKE			LBIKE			RBIKE			
		X1	Y1	Z1	X2	Y2	Z2	X3	Y3	Z3	X4	Y4	Z4	X5	Y5	Z5	X6	Y6	Z6	X7	Y7	Z7	X8	Y8	Z8	X9	Y9	Z9	X10	Y10	Z10	X11	Y11	Z11	X12	Y12	Z12	X13	Y13	Z13	X14	Y14	Z14	X15	Y15	Z15	X16	Y16	Z16	X17	Y17	Z17	X18	Y18	Z18	X19	Y19	Z19	X20	Y20	Z20	X21	Y21	Z21	X22	Y22	Z22	X23	Y23	Z23	X24	Y24	Z24	X25	Y25	Z25	X26	Y26	Z26	X27	Y27	Z27	X28	Y28	Z28	X29	Y29	Z29	X30	Y30	Z30	X31	Y31	Z31	X32	Y32	Z32	X33	Y33	Z33	X34	Y34	Z34	X35	Y35	Z35	X36	Y36	Z36	X37	Y37	Z37	X38	Y38	Z38	X39	Y39	Z39	X40	Y40	Z40	X41	Y41	Z41	X42	Y42	Z42	X43	Y43	Z43	X44	Y44	Z44	X45	Y45	Z45	X46	Y46	Z46	X47	Y47	Z47	X48	Y48	Z48	X49	Y49	Z49	X50	Y50	Z50	X51	Y51	Z51	
0	0.0000	462.591998	1475.537415	-135.032466	464.826998	1472.137924	-431.272199	434.469063	1527.592272	-290.143903	460.209951	1379.332452	-286.732287	519.606732	1174.611211	-27.630973	689.718810	940.712082	-97.076456	504.729674	1191.699653	-538.634614	634.755848	839.666386	-503.625902	-72.874620	1181.105210	-292.134188	92.268964	1190.686806	-440.839521	85.835009	1178.943595	-128.048950	121.902867	1140.066675	-396.630473	129.600681	1125.924596	-172.496484	-42.580184	1221.533514	-246.372024	-45.861448	1226.029995	-322.784708	31.987954	1118.399460	-114.455977	41.114842	1119.221498	-486.306790	115.729773	972.847572	-89.319965	175.915074	908.834276	-95.886850	199.505028	826.092392	-98.867648	204.963368	925.989601	-112.003565	253.833226	690.473092	-122.535296	233.626355	672.797497	-234.583104	188.684583	576.422263	-96.999594	176.220799	491.089954	-113.761480	115.794039	427.789796	-122.341463	204.084118	480.804592	-138.758690	58.804720	288.833373	-134.611404	82.913040	292.941949	-218.116800	-14.439936	277.754808	-174.770411	265.738031	170.965474	-160.008020	194.218709	169.493432	-105.661430	103.281323	1068.372572	-497.048286	188.674912	1061.456062	-508.138329	202.615138	1092.984229	-494.375928	260.872861	1010.927100	-522.678388	403.203109	930.700607	-511.814953	447.592362	917.592716	-405.462963	366.801631	820.135454	-523.017781	346.026592	740.428267	-492.112072	284.726007	677.185516	-479.852611	372.121748	733.935884	-463.574527	207.502921	557.517260	-452.590222	210.229070	567.603205	-365.164467	126.366443	544.445344	-403.007845	423.287670	498.377386	-421.546361	354.247592	484.286066	-367.400024	346.660322	468.088063	-479.140664	-187.254284	935.492112	-285.529526	-18.455129	79.213612	-484.642099	-18.283561	79.247095	-83.829953	
1	0.0050	462.579755	1475.513300	-135.046835	464.800916	1472.126135	-431.268229	434.459204	1527.562603	-290.135102	460.199677	1379.333919	-286.750662	519.610531	1174.623894	-27.641132	689.728856	940.683941	-97.058226	504.711381	1191.693101	-538.631612	634.618679	839.916195	-503.450633	-72.864657	1181.109492	-292.142749	92.212481	1190.657491	-440.822371	85.836875	1178.977499	-128.051353	121.882996	1139.992577	-396.667570	129.603187	1125.933422	-172.447378	-42.502221	1221.528136	-246.428075	-45.819212	1226.045346	-322.833287	32.007804	1118.399603	-114.472856	41.112657	1119.222363	-486.305944	115.730356	972.800101	-89.341981	175.951221	908.839739	-95.898359	199.502095	826.132837	-98.864607	204.998664	925.996401	-111.987747	253.839884	690.472605	-122.535172	233.607641	672.786221	-234.586623	188.688669	576.407019	-96.998519	176.214682	491.074020	-113.766366	115.774469	427.792831	-122.352023	204.094287	480.815361	-138.772846	58.792802	288.849115	-134.621034	82.931274	292.912388	-218.139125	-14.454389	277.765215	-174.781958	265.724797	170.990298	-160.004709	194.208650	169.502437	-105.675140	103.292102	1068.390491	-497.059432	188.652025	1061.486952	-508.165640	202.621756	1092.991317	-494.384612	260.855215	1010.941381	-522.701602	403.205405	930.675607	-511.826964	447.567260	917.543304	-405.488723	366.793141	820.136489	-523.050339	346.025509	740.439745	-492.121077	284.727841	677.178323	-479.856600	372.114116	733.929233	-463.574430	207.519922	557.510906	-452.586054	210.223914	567.628867	-365.180899	126.387058	544.460954	-403.018210	423.294385	498.372694	-421.541121	354.267470	484.289439	-367.421900	346.662140	468.095412	-479.131837	-187.254510	935.497897	-285.530543	-18.480075	79.258766	-484.633723	-18.272480	79.234225	-83.856541	
2	0.0100	462.590811	1475.505406	-135.062260	464.802860	1472.135487	-431.271828	434.453455	1527.568305	-290.147009	460.168532	1379.328278	-286.734060	519.629212	1174.616322	-27.659925	689.714459	940.687986	-97.066225	504.712614	1191.685201	-538.629009	634.630825	839.908801	-503.423471	-72.862453	1181.091259	-292.155366	92.207695	1190.649176	-440.832747	85.853818	1178.959963	-128.057410	121.899671	1140.010826	-396.699992	129.616355	1125.940992	-172.456519	-42.523565	1221.519567	-246.402134	-45.827715	1226.040653	-322.828152	32.013955	1118.393291	-114.479464	41.109292	1119.213353	-486.304231	115.725529	972.790846	-89.331001	175.964001	908.827394	-95.894943	199.505966	826.122171	-98.854221	205.004891	925.985894	-111.974569	253.835394	690.447131	-122.527605	233.585811	672.776151	-234.581898	188.684916	576.396171	-96.997252	176.200840	491.055585	-113.766566	115.767557	427.788468	-122.354229	204.057991	480.801362	-138.776770	58.768829	288.836044	-134.619460	82.860028	292.958248	-218.137421	-14.477963	277.756862	-174.785892	265.712460	171.001641	-160.000804	194.193033	169.515310	-105.673282	103.291693	1068.394758	-497.059904	188.651993	1061.491421	-508.187712	202.616833	1092.997467	-494.399602	260.864168	1010.937391	-522.703338	403.207260	930.683169	-511.836706	447.565072	917.549037	-405.493681	366.796130	820.148886	-523.068360	346.030310	740.446792	-492.128211	284.742926	677.177301	-479.855408	372.128617	733.946709	-463.591389	207.522125	557.509035	-452.593697	210.235172	567.616515	-365.159538	126.398612	544.460195	-403.010935	423.310786	498.364206	-421.555381	354.270130	484.265996	-367.369151	346.669511	468.085857	-479.134369	-187.254128	935.506034	-285.529073	-18.479058	79.256617	-484.644502	-18.284411	79.243218	-83.851457	
3	0.0150	462.593289	1475.520789	-135.052856	464.803787	1472.148842	-431.305099	434.448624	1527.610700	-290.181288	460.136983	1379.352804	-286.734852	519.622126	1174.622419	-27.678934	689.706744	940.696283	-97.094292	504.886651	1191.531636	-538.184724	634.723948	839.847148	-503.535175	-72.976798	1180.999196	-292.212551	92.224037	1190.648976	-440.866411	85.812456	1178.906595	-128.040644	121.882667	1139.986931	-396.669868	129.500892	1126.093375	-172.546069	-42.526471	1221.519685	-246.402447	-45.845137	1226.017840	-322.808565	32.025225	1118.391717	-114.478497	41.111759	1119.208822	-486.305311	115.781680	972.814693	-89.369419	176.449782	908.248053	-95.843704	199.516707	826.101991	-98.852544	205.007917	925.958458	-111.990830	253.804091	690.446797	-122.511290	233.578530	672.763241	-234.584324	188.707740	576.378443	-97.022515	174.984080	490.189217	-114.625489	115.740109	427.790176	-122.335809	203.891853	480.646910	-138.950599	58.761849	288.792920	-134.490050	82.844349	292.901078	-218.145140	-14.515718	277.754305	-174.785397	265.691523	171.003688	-159.990190	194.183979	169.536215	-105.661606	103.457692	1068.650981	-497.328518	188.658060	1061.485115	-508.175348	202.588783	1093.255265	-494.706111	260.873576	1010.950809	-522.717987	403.150327	930.735062	-511.831086	447.597561	917.547479	-405.500716	366.795473	820.146471	-523.070966	346.081045	740.466397	-492.270770	284.883192	677.078089	-479.487370	372.215645	733.973726	-463.875376	207.774907	557.530332	-452.806940	210.161000	567.680360	-364.839997	126.412813	544.477392	-403.016706	423.334801	498.352404	-421.531561	354.289624	484.266367	-367.410396	346.694457	468.074577	-479.117331	-187.339589	935.527429	-285.804315	-18.475568	79.247588	-484.644760	-18.276210	79.254682	-83.844726	
4	0.0200	462.591256	1475.506755	-135.071099	464.770122	1472.125562	-431.302435	434.461850	1527.643097	-290.260939	460.164369	1379.349763	-286.752511	519.623467	1174.701581	-27.646602	689.706638	940.684121	-97.118669	504.934216	1191.533019	-538.126103	634.658447	839.891312	-503.453756	-72.951739	1181.074520	-292.239863	92.190312	1190.619398	-440.887692	85.740818	1179.063807	-128.384315	121.849286	1140.136382	-396.667109	129.768135	1126.320935	-172.368607	-42.321680	1221.842408	-246.090039	-45.740214	1226.326862	-323.312969	32.063352	1118.547215	-114.442961	41.091420	1119.079039	-486.223711	115.779644	972.775404	-89.340316	176.632029	908.325013	-95.737687	199.574020	826.096605	-98.886054	204.990971	925.925400	-112.433363	253.839456	690.422207	-122.464474	233.566545	672.796305	-234.567083	188.691988	576.447339	-97.028094	175.027117	490.201300	-114.655683	115.722952	427.749446	-122.346511	203.943054	480.644648	-138.978606	58.782304	288.839139	-134.389429	82.914795	292.972794	-218.223896	-14.490504	277.804186	-174.784273	265.748010	171.050368	-160.082497	194.197244	169.565568	-105.704852	103.458100	1068.645060	-497.314712	188.639421	1061.374183	-508.089741	202.554015	1093.163621	-494.583464	260.858758	1010.916498	-522.635334	403.160298	930.717613	-511.793592	447.529848	917.496977	-405.530468	366.878798	820.100091	-522.792767	346.111430	740.466305	-492.277763	284.836849	677.091499	-479.433218	372.248555	733.963708	-463.889853	207.740166	557.505675	-452.728198	210.088935	567.656216	-364.916686	126.424646	544.487669	-403.098314	423.365554	498.355218	-421.554205	354.348833	484.292374	-367.379889	346.789640	468.049294	-479.072114	-187.336079	935.502129	-285.871471	-18.202291	79.506185	-484.438907	-18.285650	79.334213	-83.771708	
